<?xml version="1.0" standalone="no"?>
<!DOCTYPE svg PUBLIC "-//W3C//DTD SVG 20010904//EN"
 "http://www.w3.org/TR/2001/REC-SVG-20010904/DTD/svg10.dtd">
<svg version="1.0" xmlns="http://www.w3.org/2000/svg"
 width="1000.000000pt" height="1000.000000pt" viewBox="0 0 1000.000000 1000.000000"
 preserveAspectRatio="xMidYMid meet">
<metadata>
Created by potrace 1.14, written by Peter Selinger 2001-2017
</metadata>
<g transform="translate(0.000000,1000.000000) scale(0.100000,-0.100000)"
fill="#000000" stroke="none">
<path d="M0 5000 l0 -5000 5000 0 5000 0 0 5000 0 5000 -5000 0 -5000 0 0
-5000z m2152 1078 l3 -902 768 902 769 902 404 0 c223 0 403 -3 401 -7 -3 -5
-386 -447 -852 -983 -466 -536 -849 -980 -852 -987 -2 -6 385 -451 861 -989
476 -538 866 -982 866 -986 0 -5 -188 -8 -417 -8 l-418 0 -765 885 -765 885
-3 -885 -2 -885 -323 2 -322 3 -3 1965 c-1 1081 0 1971 3 1978 3 9 78 12 325
12 l320 0 2 -902z m4608 878 c299 -44 510 -107 737 -221 227 -114 403 -251
552 -428 300 -357 443 -785 443 -1322 0 -360 -57 -637 -187 -912 -271 -572
-801 -927 -1540 -1029 -100 -14 -245 -17 -887 -21 l-768 -5 0 1982 0 1982 768
-5 c649 -4 785 -7 882 -21z"/>
<path d="M5750 5001 l0 -1451 358 0 c381 0 540 9 693 40 445 90 764 349 918
744 116 298 143 708 71 1067 -99 490 -410 844 -855 974 -207 60 -273 66 -747
72 l-438 5 0 -1451z"/>
</g>
</svg>
